<?xml version="1.0" standalone="no"?>
<!DOCTYPE svg PUBLIC "-//W3C//DTD SVG 20010904//EN"
 "http://www.w3.org/TR/2001/REC-SVG-20010904/DTD/svg10.dtd">
<svg version="1.0" xmlns="http://www.w3.org/2000/svg"
 width="187.000000pt" height="187.000000pt" viewBox="0 0 187.000000 187.000000"
 preserveAspectRatio="xMidYMid meet">
<metadata>
Created by potrace 1.11, written by Peter Selinger 2001-2013
</metadata>
<g transform="translate(0.000000,187.000000) scale(0.100000,-0.100000)"
fill="#000000" stroke="none">
<path d="M810 1544 c-139 -31 -222 -150 -237 -336 l-6 -78 -140 0 c-78 0 -158
-5 -181 -12 -91 -26 -169 -107 -203 -213 -13 -40 -17 -105 -21 -327 l-4 -276
111 0 110 0 3 262 c3 291 5 300 73 352 33 24 44 27 133 29 53 1 103 0 110 -3
9 -3 12 -77 12 -323 l0 -318 110 0 110 1 0 318 c0 245 3 319 13 322 6 2 51 4
100 3 l87 -1 0 93 0 93 -100 0 -100 0 0 38 c0 70 27 139 67 169 33 26 45 28
137 31 l101 4 -1 -524 c0 -287 2 -529 4 -535 3 -9 33 -12 108 -11 l105 2 -1
275 c-1 152 -1 297 -1 322 l1 45 103 -1 c113 -2 152 -15 185 -62 33 -49 35
-64 38 -313 1 -135 3 -250 3 -257 1 -7 35 -11 109 -12 l109 0 0 246 c1 165 -4
266 -12 308 -25 119 -88 209 -175 249 -38 18 -69 21 -202 24 -154 4 -158 4
-159 25 0 12 -1 108 -2 212 l-2 190 -223 0 c-126 0 -244 -5 -272 -11z"/>
</g>
</svg>
